<?xml version="1.0" standalone="no"?>
<!DOCTYPE svg PUBLIC "-//W3C//DTD SVG 20010904//EN"
 "http://www.w3.org/TR/2001/REC-SVG-20010904/DTD/svg10.dtd">
<svg version="1.0" xmlns="http://www.w3.org/2000/svg"
 width="700.000000pt" height="700.000000pt" viewBox="0 0 700.000000 700.000000"
 preserveAspectRatio="xMidYMid meet">
<metadata>
Created by potrace 1.11, written by Peter Selinger 2001-2013
</metadata>
<g transform="translate(0.000000,700.000000) scale(0.100000,-0.100000)"
fill="#000000" stroke="none">
<path d="M2075 6204 c-764 -383 -1401 -702 -1415 -709 -14 -7 -84 -43 -156
-78 -72 -36 -139 -69 -150 -75 -10 -6 -63 -32 -116 -58 l-98 -48 0 -1663 c0
-915 2 -1663 5 -1663 3 0 13 4 23 9 9 6 67 34 128 64 61 30 119 59 130 65 23
13 317 160 359 179 17 8 37 18 46 23 9 4 70 35 135 68 182 90 286 143 314 158
14 8 48 24 75 37 28 13 104 51 170 84 66 33 158 80 205 103 47 23 101 51 120
60 19 10 96 49 170 86 74 37 142 70 150 75 18 10 484 242 555 276 28 14 88 44
135 69 47 24 110 55 140 70 30 14 78 37 105 51 139 69 237 118 302 151 l73 37
0 1663 c0 914 -3 1662 -7 1662 -5 -1 -633 -314 -1398 -696z m416 -285 c60 -3
145 -42 163 -75 6 -10 19 -31 29 -46 24 -36 47 -127 54 -208 2 -36 4 -281 3
-545 -4 -1158 -6 -1090 29 -1195 26 -78 58 -110 108 -110 49 0 136 46 184 98
23 23 51 49 63 57 49 32 91 -17 62 -73 -15 -27 -140 -159 -186 -197 -14 -11
-45 -36 -70 -56 -68 -55 -186 -121 -270 -152 -142 -51 -251 -31 -318 60 -39
51 -42 50 -97 -33 -20 -30 -46 -65 -58 -79 -12 -13 -35 -40 -52 -61 -47 -58
-220 -234 -231 -234 -5 0 -36 -25 -69 -56 -33 -30 -76 -63 -95 -74 -19 -10
-75 -43 -125 -74 -49 -31 -97 -59 -105 -62 -8 -3 -33 -14 -55 -24 -219 -97
-355 -116 -467 -67 -67 30 -133 100 -148 159 -7 23 -17 55 -22 70 -20 56 4
333 37 423 61 165 188 355 339 507 66 67 419 371 534 460 19 15 53 45 76 65
22 21 65 58 96 83 47 39 118 110 220 220 62 68 137 203 148 270 11 66 3 370
-12 444 -2 6 -6 29 -11 51 -41 206 -222 221 -470 39 -112 -82 -201 -187 -255
-299 -27 -58 -39 -100 -44 -150 -11 -116 -19 -168 -32 -208 -14 -43 -93 -154
-145 -202 -121 -111 -296 -206 -354 -191 -48 12 -65 66 -51 156 8 52 18 81 58
168 15 35 28 65 28 67 0 9 71 118 130 200 56 78 180 226 218 259 7 6 38 36 70
66 146 141 337 279 512 372 93 49 293 135 330 142 19 3 40 7 45 8 6 1 35 9 65
18 30 10 62 16 71 14 9 -1 41 -4 70 -5z"/>
<path d="M2241 4650 c-23 -41 -136 -160 -252 -265 -205 -187 -406 -383 -467
-455 -35 -42 -122 -177 -122 -189 0 -5 -12 -35 -26 -67 -27 -60 -61 -240 -58
-304 7 -172 89 -278 219 -285 165 -9 441 180 593 407 112 167 139 262 142 516
5 493 6 682 0 682 -4 0 -16 -18 -29 -40z"/>
<path d="M3525 5238 l0 -1663 1640 -820 c902 -451 1652 -826 1668 -832 l27
-13 0 1665 0 1664 -1662 830 c-915 457 -1665 831 -1668 831 -3 0 -5 -748 -5
-1662z m265 957 c19 -12 55 -31 80 -43 25 -12 77 -39 115 -62 39 -22 97 -54
130 -69 33 -16 113 -54 178 -85 64 -31 120 -56 122 -56 20 0 154 -73 160 -87
13 -30 15 -87 5 -103 -8 -13 -20 -11 -87 11 -102 33 -128 27 -137 -36 -9 -55
0 -142 25 -270 12 -55 23 -109 25 -120 3 -18 17 -86 28 -140 3 -11 11 -51 19
-90 9 -38 18 -83 20 -100 3 -16 13 -64 22 -105 9 -41 18 -86 21 -100 3 -14 11
-52 19 -85 27 -115 75 -340 79 -370 2 -16 11 -61 20 -100 9 -38 17 -81 20 -95
4 -23 63 -314 71 -350 2 -8 4 -24 4 -34 2 -36 15 -5 47 107 18 62 42 144 54
182 12 39 39 129 60 200 21 72 61 200 89 285 27 85 56 180 64 210 8 30 29 100
47 155 38 117 40 129 28 173 -5 19 -15 61 -23 95 -13 62 -66 224 -86 262 -17
34 -62 79 -119 120 -100 70 -110 83 -110 137 0 64 15 68 87 25 32 -19 81 -45
108 -59 28 -13 96 -50 152 -81 56 -31 104 -57 107 -57 6 0 162 -72 221 -102
21 -11 62 -28 91 -39 67 -25 85 -47 89 -104 2 -35 -2 -48 -15 -55 -10 -5 -20
-7 -23 -4 -3 3 -36 13 -74 23 -48 12 -75 15 -90 8 -42 -19 -39 -114 13 -357 3
-14 7 -44 10 -66 3 -23 34 -171 70 -330 36 -159 67 -302 69 -319 2 -16 13 -73
25 -125 54 -233 62 -272 86 -385 14 -66 28 -133 30 -150 2 -16 6 -39 8 -50 2
-11 15 -71 27 -132 13 -62 26 -110 30 -105 4 4 31 102 59 217 29 116 74 287
100 380 27 94 51 186 55 205 4 19 23 88 41 153 19 65 36 130 39 145 2 15 16
79 30 142 14 63 28 149 31 190 3 41 6 77 7 80 0 3 -2 27 -7 53 -10 63 -29 107
-58 134 -30 28 -131 103 -138 103 -15 0 -40 62 -40 98 0 49 11 58 48 39 91
-48 189 -101 270 -146 51 -29 110 -58 130 -65 20 -8 94 -41 165 -75 123 -59
127 -62 128 -94 2 -41 -2 -81 -7 -86 -2 -2 -30 1 -62 8 -78 16 -112 14 -147
-11 -36 -25 -109 -151 -132 -228 -14 -50 -30 -101 -123 -407 -17 -56 -33 -114
-36 -129 -3 -15 -34 -124 -71 -243 -36 -119 -67 -225 -69 -237 -2 -11 -18 -68
-35 -125 -17 -57 -32 -111 -34 -119 -2 -8 -14 -49 -25 -90 -12 -41 -32 -115
-45 -165 -49 -189 -64 -238 -76 -246 -8 -4 -45 -13 -83 -20 -67 -11 -70 -11
-87 12 -15 20 -25 63 -35 149 -1 14 -26 133 -54 265 -29 132 -53 247 -55 255
-2 8 -8 33 -13 55 -6 22 -13 58 -16 80 -4 38 -34 173 -106 480 -17 72 -33 146
-36 165 -3 19 -18 96 -34 170 -16 74 -32 146 -34 160 -11 64 -58 275 -62 279
-2 2 -4 -2 -5 -10 0 -8 -2 -21 -4 -29 -5 -26 -96 -332 -117 -395 -11 -33 -21
-67 -23 -76 -2 -10 -33 -105 -70 -213 -36 -108 -68 -206 -70 -218 -3 -12 -22
-78 -44 -147 -62 -199 -90 -293 -96 -331 -7 -42 -27 -100 -35 -101 -3 0 -14
-2 -25 -4 -74 -14 -121 -15 -137 -3 -19 14 -59 176 -84 333 -3 22 -13 72 -21
110 -8 39 -17 79 -18 90 -2 11 -13 65 -25 120 -12 55 -24 111 -26 125 -3 14
-14 65 -25 113 -10 48 -22 105 -25 125 -3 20 -32 154 -65 296 -63 277 -67 292
-74 346 -3 19 -10 51 -15 70 -5 19 -26 107 -45 195 -20 88 -43 189 -51 225
-22 94 -25 111 -30 148 -2 19 -6 37 -9 41 -2 4 -7 23 -10 42 -10 55 -25 107
-65 225 -54 158 -87 216 -139 243 -12 7 -30 19 -39 26 -9 8 -31 25 -49 40 -35
28 -50 76 -39 121 8 29 26 27 86 -11z"/>
<path d="M1835 2696 l-1667 -833 128 -69 c188 -102 253 -137 314 -171 109 -61
356 -197 415 -228 169 -91 373 -203 395 -217 14 -8 63 -36 110 -60 47 -25 103
-56 125 -68 22 -13 76 -42 120 -65 44 -24 109 -59 145 -80 36 -20 106 -59 155
-85 50 -26 121 -66 160 -89 38 -23 73 -41 77 -41 4 0 36 -17 70 -38 35 -21
101 -58 148 -82 47 -24 101 -53 120 -65 19 -12 64 -37 100 -55 36 -19 94 -50
130 -71 36 -20 99 -55 140 -76 41 -22 116 -63 165 -90 126 -71 233 -130 280
-154 l40 -21 70 40 c39 22 104 57 145 79 41 22 90 49 108 59 l34 19 21 -30
c64 -89 194 -173 305 -196 30 -6 120 -9 215 -7 l162 3 80 38 c44 21 97 51 117
67 20 17 40 30 45 30 4 0 26 19 49 41 l42 42 13 -41 c11 -39 17 -43 83 -71 70
-28 94 -37 191 -65 139 -41 404 -56 546 -31 378 67 610 324 611 676 0 276
-132 472 -410 603 -34 16 -62 33 -62 37 0 4 37 26 83 50 45 23 123 66 173 95
51 29 107 60 125 68 19 8 66 33 104 56 39 22 97 54 130 71 33 18 105 57 160
89 55 31 114 62 132 69 18 7 37 18 42 25 7 9 -92 62 -367 200 -207 103 -384
191 -392 195 -8 5 -139 70 -290 145 -151 76 -284 142 -295 148 -11 6 -452 227
-980 490 -528 264 -968 483 -977 488 -13 7 -417 -191 -1683 -824z m2377 -119
c4 -7 5 -82 2 -167 -3 -85 -7 -184 -8 -220 -1 -36 -1 -70 1 -75 3 -10 75 -11
468 -4 89 1 166 0 172 -4 14 -9 -30 -146 -52 -163 -10 -8 -60 -10 -152 -6 -76
2 -208 5 -293 6 l-154 1 -2 -664 c-1 -717 1 -754 52 -858 36 -75 100 -136 164
-156 124 -40 274 -6 374 85 17 16 38 28 47 28 24 0 57 -31 64 -61 5 -22 -2
-34 -47 -76 -29 -28 -66 -62 -83 -75 -49 -39 -168 -97 -235 -114 -148 -38
-371 -9 -475 62 -20 13 -39 24 -43 24 -12 0 -76 71 -103 115 -25 39 -64 131
-58 137 1 2 -3 12 -9 24 -28 53 -30 193 -18 1045 l7 476 -148 -2 c-82 -2 -156
1 -166 7 -14 7 -17 19 -15 51 3 47 11 53 123 87 86 26 106 35 170 78 53 36
108 85 138 124 39 48 109 161 124 196 33 81 47 104 67 112 26 9 79 2 88 -13z
m1523 -396 c33 -6 71 -14 85 -17 59 -13 146 -20 235 -20 88 1 95 0 96 -19 1
-11 2 -51 3 -90 3 -88 21 -295 32 -366 6 -44 -11 -62 -58 -57 -31 3 -36 9 -78
93 -54 109 -102 177 -169 236 -68 61 -69 62 -131 92 -68 33 -130 45 -208 41
-188 -11 -315 -142 -315 -324 0 -106 53 -178 191 -259 66 -38 193 -101 206
-101 3 0 80 -36 172 -80 146 -71 241 -126 307 -179 71 -56 139 -156 168 -247
27 -82 32 -237 12 -335 -13 -67 -70 -191 -103 -227 -11 -12 -20 -24 -20 -28 0
-9 -52 -56 -115 -104 -52 -40 -192 -101 -260 -115 -22 -4 -53 -10 -70 -14 -65
-13 -348 -6 -432 12 -82 17 -287 80 -310 95 -6 4 -23 57 -38 117 -35 146 -35
142 -41 205 -4 30 -10 63 -15 72 -6 10 -8 18 -5 18 2 0 0 16 -4 35 -10 44 5
65 50 68 32 2 36 -2 60 -48 66 -129 101 -180 183 -264 121 -124 264 -193 404
-193 237 0 394 158 394 397 0 89 -22 149 -78 215 -35 42 -169 129 -276 179
-205 96 -421 207 -442 226 -7 6 -35 26 -63 45 -84 58 -155 181 -176 305 -8 42
-8 174 -1 210 18 94 67 185 139 259 84 87 204 146 346 170 86 14 238 13 325
-3z m-181 -1241 c111 -55 222 -116 247 -137 108 -88 138 -209 90 -363 -26 -83
-68 -133 -141 -170 -180 -91 -389 -37 -563 145 -49 50 -157 204 -157 222 0 20
-32 73 -50 83 -28 15 -81 12 -120 -8 -39 -19 -52 -55 -38 -107 4 -16 9 -43 12
-60 8 -43 17 -88 22 -105 3 -11 -6 -16 -33 -18 -24 -1 -48 -13 -73 -36 -20
-18 -63 -46 -96 -62 -49 -23 -72 -28 -134 -28 -89 0 -143 23 -187 81 -15 21
-30 40 -34 43 -3 3 -8 13 -12 23 -7 20 16 37 158 112 50 26 119 65 155 85 36
21 83 46 105 57 67 34 178 95 215 120 19 12 39 23 43 23 5 0 59 29 121 64 61
35 137 76 169 91 31 15 60 31 63 36 11 18 43 6 238 -91z"/>
</g>
</svg>
